<svg width="80" height="80" viewBox="0 0 80 80" fill="none" xmlns="http://www.w3.org/2000/svg">
<circle cx="40" cy="40" r="40" fill="white"/>
<path d="M56 21.2618V25.865C56 26.2079 55.8584 26.5422 55.5922 26.7588C55.385 26.9273 55.1391 27.0057 54.8975 27.0057C54.6027 27.0057 54.3134 26.8883 54.1019 26.6669L53.4522 25.9923H53.4421L46.4712 32.9588C45.6091 33.8202 44.2122 33.8202 43.3503 32.9588L38.8447 28.4558H38.8348L28.9177 38.3663C28.4876 38.7969 27.9227 39.0123 27.3578 39.0123C26.7931 39.0123 26.2286 38.7971 25.7978 38.3663C24.9359 37.5056 24.9359 36.109 25.7978 35.2483L37.2796 23.773C38.113 22.9404 39.4479 22.913 40.3136 23.6921C40.3429 23.7178 40.3717 23.7451 40.3996 23.773L44.9059 28.2757C44.9088 28.2789 44.9132 28.2789 44.9161 28.2757L50.3846 22.8104L50.3851 22.8007L49.6328 22.0184C49.3261 21.7001 49.2402 21.2291 49.4128 20.8227C49.5866 20.4161 49.9859 20.1523 50.4279 20.1523H54.8897C55.5031 20.1523 56 20.6489 56 21.2618Z" fill="url(#paint0_linear_960_3160)"/>
<path d="M40.573 37.2248C34.3583 37.2248 29.3022 42.2901 29.3022 48.5169C29.3022 54.7432 34.3583 59.8087 40.573 59.8087C46.7875 59.8087 51.8435 54.7432 51.8435 48.5169C51.8435 42.2906 46.7875 37.2248 40.573 37.2248ZM38.0207 42.0485L38.0299 42.0451C39.7537 41.3669 41.6392 41.3989 43.3391 42.1349C43.9277 42.39 44.1986 43.0738 43.9435 43.6629C43.8159 43.9577 43.5802 44.1732 43.3028 44.2821C43.0268 44.3908 42.7093 44.3944 42.4159 44.2673C41.2841 43.7769 40.0284 43.7559 38.8806 44.2071L38.8714 44.2109C38.2743 44.4457 37.5997 44.1521 37.365 43.555C37.1299 42.9579 37.4238 42.2835 38.0207 42.0485ZM34.1063 51.0685L34.1039 51.0625C33.4252 49.3374 33.4579 47.4504 34.1954 45.7496C34.4508 45.1607 35.135 44.8906 35.7237 45.1459C36.3126 45.4013 36.5827 46.0853 36.3273 46.6742C35.836 47.807 35.8144 49.0632 36.2661 50.2119C36.5013 50.8093 36.2087 51.4868 35.6118 51.7215C35.0145 51.9563 34.3411 51.6659 34.1063 51.0685ZM43.1474 54.978C43.1387 54.9819 43.13 54.985 43.1215 54.9884C41.3947 55.6676 39.5066 55.6347 37.805 54.8955C37.2166 54.6399 36.9467 53.9556 37.2021 53.3669C37.4577 52.7783 38.1419 52.5084 38.7308 52.7643C39.8612 53.2551 41.1149 53.2784 42.2622 52.8294C42.2661 52.8279 42.27 52.8262 42.2736 52.8248C42.871 52.59 43.5453 52.8838 43.7801 53.4807C44.012 54.0701 43.729 54.735 43.1474 54.978ZM46.9528 51.2912C46.8247 51.5853 46.5892 51.8 46.3126 51.9089C46.0359 52.0176 45.7179 52.0209 45.4238 51.8929C44.8354 51.6371 44.5658 50.9526 44.8218 50.3642C45.3154 49.2304 45.3376 47.9725 44.885 46.8218L44.8802 46.8097C44.6454 46.2126 44.939 45.5381 45.5361 45.303C46.133 45.0682 46.8078 45.3621 47.0426 45.959L47.044 45.9628C47.0448 45.9643 47.0467 45.9699 47.0474 45.9711C47.7273 47.699 47.6934 49.5884 46.9528 51.2912Z" fill="url(#paint1_linear_960_3160)"/>
<defs>
<linearGradient id="paint0_linear_960_3160" x1="40.5757" y1="20.1523" x2="40.5757" y2="39.0123" gradientUnits="userSpaceOnUse">
<stop stop-color="#2AAC46"/>
<stop offset="1" stop-color="#35C254"/>
</linearGradient>
<linearGradient id="paint1_linear_960_3160" x1="40.5729" y1="37.2248" x2="40.5729" y2="59.8087" gradientUnits="userSpaceOnUse">
<stop stop-color="#2AAC46"/>
<stop offset="1" stop-color="#35C254"/>
</linearGradient>
</defs>
</svg>
