<svg width="20" height="20" viewBox="0 0 20 20" fill="none" xmlns="http://www.w3.org/2000/svg">
<path d="M18 0.630894V2.93249C18 3.10397 17.9292 3.2711 17.7961 3.37942C17.6925 3.46365 17.5695 3.50286 17.4487 3.50286C17.3013 3.50286 17.1567 3.44417 17.0509 3.33343L16.7261 2.99614H16.721L13.2356 6.47939C12.8045 6.91011 12.1061 6.91011 11.6752 6.47939L9.42234 4.2279H9.41738L4.45887 9.18314C4.24382 9.39844 3.96135 9.50615 3.67889 9.50615C3.39654 9.50615 3.11432 9.39856 2.8989 9.18314C2.46794 8.75279 2.46794 8.05449 2.8989 7.62414L8.63981 1.88649C9.05649 1.47018 9.72393 1.4565 10.1568 1.84607C10.1715 1.8589 10.1859 1.87258 10.1998 1.88649L12.453 4.13786C12.4544 4.13944 12.4566 4.13944 12.458 4.13786L15.1923 1.40519L15.1925 1.40035L14.8164 1.00921C14.6631 0.850064 14.6201 0.614556 14.7064 0.41136C14.7933 0.208044 14.993 0.0761299 15.214 0.0761299H17.4449C17.7515 0.0761299 18 0.324467 18 0.630894Z" fill="url(#paint0_linear_255_2103)"/>
<path d="M10.2866 8.61242C7.17921 8.61242 4.65118 11.145 4.65118 14.2584C4.65118 17.3716 7.17921 19.9044 10.2866 19.9044C13.3938 19.9044 15.9218 17.3716 15.9218 14.2584C15.9218 11.1453 13.3938 8.61242 10.2866 8.61242ZM9.01039 11.0243L9.01499 11.0226C9.8769 10.6835 10.8197 10.6994 11.6696 11.0675C11.9639 11.195 12.0993 11.5369 11.9718 11.8315C11.908 11.9789 11.7901 12.0866 11.6514 12.141C11.5135 12.1954 11.3547 12.1972 11.208 12.1337C10.6421 11.8885 10.0143 11.8779 9.44038 12.1035L9.43578 12.1055C9.13722 12.2229 8.79993 12.0761 8.68254 11.7775C8.56503 11.4789 8.71195 11.1418 9.01039 11.0243ZM7.05322 15.5343L7.05201 15.5312C6.71267 14.6687 6.72901 13.7252 7.09776 12.8748C7.22544 12.5804 7.56757 12.4453 7.86189 12.573C8.15634 12.7007 8.2914 13.0427 8.16372 13.3371C7.91805 13.9035 7.90727 14.5316 8.1331 15.106C8.25073 15.4046 8.10442 15.7434 7.80598 15.8608C7.5073 15.9782 7.17062 15.8329 7.05322 15.5343ZM11.5738 17.489C11.5694 17.4909 11.565 17.4925 11.5608 17.4942C10.6974 17.8338 9.75334 17.8173 8.90256 17.4477C8.60835 17.3199 8.47341 16.9778 8.60109 16.6835C8.72889 16.3892 9.07102 16.2542 9.36547 16.3821C9.93064 16.6276 10.5575 16.6392 11.1312 16.4147C11.1331 16.414 11.135 16.4131 11.1369 16.4124C11.4355 16.295 11.7727 16.4419 11.8901 16.7404C12.006 17.035 11.8646 17.3675 11.5738 17.489ZM13.4765 15.6456C13.4124 15.7926 13.2947 15.9 13.1564 15.9544C13.018 16.0088 12.859 16.0105 12.712 15.9465C12.4178 15.8185 12.2829 15.4763 12.411 15.1821C12.6577 14.6152 12.6689 13.9863 12.4426 13.4109L12.4401 13.4049C12.3228 13.1063 12.4696 12.769 12.7681 12.6515C13.0666 12.5341 13.404 12.681 13.5214 12.9795L13.5221 12.9814C13.5224 12.9821 13.5234 12.9849 13.5238 12.9855C13.8637 13.8495 13.8468 14.7942 13.4765 15.6456Z" fill="url(#paint1_linear_255_2103)"/>
<defs>
<linearGradient id="paint0_linear_255_2103" x1="10.2878" y1="0.0761299" x2="10.2878" y2="9.50615" gradientUnits="userSpaceOnUse">
<stop stop-color="#2AAC46"/>
<stop offset="1" stop-color="#35C254"/>
</linearGradient>
<linearGradient id="paint1_linear_255_2103" x1="10.2865" y1="8.61242" x2="10.2865" y2="19.9044" gradientUnits="userSpaceOnUse">
<stop stop-color="#2AAC46"/>
<stop offset="1" stop-color="#35C254"/>
</linearGradient>
</defs>
</svg>
