<svg width="20" height="20" viewBox="0 0 20 20" fill="none" xmlns="http://www.w3.org/2000/svg">
<path fill-rule="evenodd" clip-rule="evenodd" d="M18.16 5.33418C18.1517 5.67918 17.8659 5.95251 17.5209 5.94501C17.1759 5.93668 16.9025 5.65084 16.91 5.30584L16.9442 3.80084L15.44 3.76668C15.095 3.75834 14.8217 3.47251 14.8292 3.12751C14.8375 2.78251 15.1234 2.50918 15.4684 2.51668L17.5984 2.56584C17.9434 2.57334 18.2167 2.85918 18.2084 3.20418L18.16 5.33418Z" fill="#FFAF36"/>
<path fill-rule="evenodd" clip-rule="evenodd" d="M4.85585 7.78834V17.9058C4.85585 18.4875 4.38502 18.9583 3.80335 18.9583H2.09419C1.51252 18.9583 1.04169 18.4875 1.04169 17.9058V7.78834C1.04169 7.20751 1.51252 6.73584 2.09419 6.73584H3.80335C4.38502 6.73584 4.85585 7.20751 4.85585 7.78834Z" fill="#FFAF36"/>
<path fill-rule="evenodd" clip-rule="evenodd" d="M14.2575 12.9167V17.9058C14.2575 18.185 14.1467 18.4525 13.9492 18.65C13.7517 18.8475 13.4842 18.9583 13.205 18.9583H11.4959C11.2167 18.9583 10.9492 18.8475 10.7517 18.65C10.5542 18.4525 10.4434 18.185 10.4434 17.9058V12.9167C10.4434 12.6375 10.5542 12.37 10.7517 12.1725C10.9492 11.975 11.2167 11.8642 11.4959 11.8642H13.205C13.4842 11.8642 13.7517 11.975 13.9492 12.1725C14.1467 12.37 14.2575 12.6375 14.2575 12.9167Z" fill="#FFAF36"/>
<path fill-rule="evenodd" clip-rule="evenodd" d="M9.55672 10.3525V17.9059C9.55672 18.4875 9.08589 18.9584 8.50422 18.9584H6.79505C6.21339 18.9584 5.74255 18.4875 5.74255 17.9059V10.3525C5.74255 10.0734 5.85339 9.80585 6.05089 9.60835C6.24839 9.41085 6.51589 9.30002 6.79505 9.30002H8.50422C9.08589 9.30002 9.55672 9.77169 9.55672 10.3525Z" fill="#FFAF36"/>
<path fill-rule="evenodd" clip-rule="evenodd" d="M18.9583 10.3525V17.9059C18.9583 18.4875 18.4875 18.9584 17.9058 18.9584H16.1967C15.615 18.9584 15.1442 18.4875 15.1442 17.9059V10.3525C15.1442 10.0734 15.255 9.80585 15.4525 9.60835C15.65 9.41085 15.9175 9.30002 16.1967 9.30002H17.9058C18.4875 9.30002 18.9583 9.77169 18.9583 10.3525Z" fill="#FFAF36"/>
<path fill-rule="evenodd" clip-rule="evenodd" d="M2.04168 2.16667C1.76501 1.96001 1.70918 1.56751 1.91668 1.29167C2.12335 1.01584 2.51501 0.960006 2.79168 1.16667L7.75252 4.88751H10.1083C10.3008 4.88751 10.4817 4.97584 10.6 5.12667L12.5058 7.55251L16.9225 2.94334C17.1608 2.69417 17.5567 2.68584 17.8058 2.92501C18.055 3.16334 18.0633 3.55917 17.825 3.80834L12.91 8.93667C12.785 9.06751 12.6092 9.13751 12.4283 9.12834C12.2475 9.12001 12.0792 9.03251 11.9675 8.89001L9.80501 6.13751H7.54418C7.40918 6.13751 7.27751 6.09417 7.16918 6.01251L2.04168 2.16667Z" fill="#FFAF36"/>
</svg>
