<svg width="80" height="80" viewBox="0 0 80 80" fill="none" xmlns="http://www.w3.org/2000/svg">
<circle cx="40" cy="40" r="40" fill="white"/>
<path fill-rule="evenodd" clip-rule="evenodd" d="M56.3202 30.6683C56.3035 31.3583 55.7318 31.905 55.0418 31.89C54.3518 31.8733 53.8052 31.3017 53.8202 30.6117L53.8885 27.6017L50.8802 27.5333C50.1902 27.5167 49.6435 26.945 49.6585 26.255C49.6752 25.565 50.2468 25.0183 50.9368 25.0333L55.1968 25.1317C55.8868 25.1467 56.4335 25.7183 56.4168 26.4083L56.3202 30.6683Z" fill="#FFAF36"/>
<path fill-rule="evenodd" clip-rule="evenodd" d="M29.7118 35.5767V55.8117C29.7118 56.975 28.7702 57.9167 27.6068 57.9167H24.1885C23.0252 57.9167 22.0835 56.975 22.0835 55.8117V35.5767C22.0835 34.415 23.0252 33.4717 24.1885 33.4717H27.6068C28.7702 33.4717 29.7118 34.415 29.7118 35.5767Z" fill="#FFAF36"/>
<path fill-rule="evenodd" clip-rule="evenodd" d="M48.5151 45.8333V55.8117C48.5151 56.37 48.2934 56.905 47.8984 57.3C47.5034 57.695 46.9684 57.9167 46.4101 57.9167H42.9917C42.4334 57.9167 41.8984 57.695 41.5034 57.3C41.1084 56.905 40.8867 56.37 40.8867 55.8117V45.8333C40.8867 45.275 41.1084 44.74 41.5034 44.345C41.8984 43.95 42.4334 43.7283 42.9917 43.7283H46.4101C46.9684 43.7283 47.5034 43.95 47.8984 44.345C48.2934 44.74 48.5151 45.275 48.5151 45.8333Z" fill="#FFAF36"/>
<path fill-rule="evenodd" clip-rule="evenodd" d="M39.1137 40.705V55.8117C39.1137 56.975 38.172 57.9167 37.0087 57.9167H33.5904C32.427 57.9167 31.4854 56.975 31.4854 55.8117V40.705C31.4854 40.1467 31.707 39.6117 32.102 39.2167C32.497 38.8217 33.032 38.6 33.5904 38.6H37.0087C38.172 38.6 39.1137 39.5434 39.1137 40.705Z" fill="#FFAF36"/>
<path fill-rule="evenodd" clip-rule="evenodd" d="M57.9169 40.705V55.8117C57.9169 56.975 56.9752 57.9167 55.8119 57.9167H52.3936C51.2302 57.9167 50.2886 56.975 50.2886 55.8117V40.705C50.2886 40.1467 50.5102 39.6117 50.9052 39.2167C51.3002 38.8217 51.8352 38.6 52.3936 38.6H55.8119C56.9752 38.6 57.9169 39.5434 57.9169 40.705Z" fill="#FFAF36"/>
<path fill-rule="evenodd" clip-rule="evenodd" d="M24.0837 24.3333C23.5304 23.92 23.4187 23.135 23.8337 22.5833C24.2471 22.0317 25.0304 21.92 25.5837 22.3333L35.5054 29.775H40.2171C40.6021 29.775 40.9637 29.9517 41.2004 30.2533L45.0121 35.105L53.8454 25.8867C54.3221 25.3883 55.1137 25.3717 55.6121 25.85C56.1104 26.3267 56.1271 27.1183 55.6504 27.6167L45.8204 37.8733C45.5704 38.135 45.2187 38.275 44.8571 38.2567C44.4954 38.24 44.1587 38.065 43.9354 37.78L39.6104 32.275H35.0887C34.8187 32.275 34.5554 32.1883 34.3387 32.025L24.0837 24.3333Z" fill="#FFAF36"/>
</svg>
